<svg width="35" height="24" viewBox="0 0 35 24" fill="none" xmlns="http://www.w3.org/2000/svg">
<path d="M34.7885 10.7795C31.4933 4.35009 24.9697 0 17.5 0C10.0303 0 3.50483 4.35313 0.211425 10.7801C0.0724228 11.0551 0 11.3589 0 11.667C0 11.9751 0.0724228 12.2789 0.211425 12.5538C3.50665 18.9832 10.0303 23.3333 17.5 23.3333C24.9697 23.3333 31.4951 18.9802 34.7885 12.5532C34.9275 12.2782 34.9999 11.9745 34.9999 11.6664C34.9999 11.3583 34.9275 11.0545 34.7885 10.7795ZM17.5 20.4167C15.7694 20.4167 14.0777 19.9035 12.6387 18.942C11.1998 17.9806 10.0783 16.614 9.41602 15.0151C8.75375 13.4163 8.58047 11.657 8.91809 9.95963C9.25572 8.26229 10.0891 6.70319 11.3128 5.47948C12.5365 4.25577 14.0956 3.42242 15.7929 3.0848C17.4903 2.74717 19.2496 2.92045 20.8484 3.58272C22.4473 4.24499 23.8139 5.3665 24.7753 6.80543C25.7368 8.24436 26.25 9.93608 26.25 11.6667C26.2505 12.8159 26.0246 13.954 25.585 15.0158C25.1455 16.0777 24.501 17.0425 23.6884 17.8551C22.8758 18.6677 21.911 19.3122 20.8491 19.7518C19.7873 20.1913 18.6492 20.4172 17.5 20.4167ZM17.5 5.83333C16.9793 5.84061 16.462 5.91807 15.962 6.06363C16.3741 6.62367 16.5719 7.31286 16.5195 8.00622C16.467 8.69957 16.1678 9.35116 15.6761 9.84284C15.1845 10.3345 14.5329 10.6337 13.8395 10.6862C13.1462 10.7386 12.457 10.5408 11.8969 10.1287C11.578 11.3037 11.6356 12.549 12.0615 13.6895C12.4875 14.83 13.2603 15.8082 14.2713 16.4864C15.2824 17.1647 16.4806 17.5088 17.6974 17.4703C18.9143 17.4319 20.0884 17.0128 21.0546 16.2721C22.0208 15.5315 22.7303 14.5064 23.0835 13.3413C23.4366 12.1762 23.4154 10.9297 23.023 9.77726C22.6305 8.62481 21.8866 7.62443 20.8958 6.91694C19.9051 6.20945 18.7174 5.83047 17.5 5.83333Z" fill="#CCBEAE"/>
</svg>
