<svg width="79" height="79" viewBox="0 0 79 79" fill="none" xmlns="http://www.w3.org/2000/svg">
<path d="M70.3125 0H8.4375C6.19974 0 4.05362 0.888949 2.47129 2.47129C0.888948 4.05362 0 6.19974 0 8.4375L0 70.3125C0 72.5503 0.888948 74.6964 2.47129 76.2787C4.05362 77.8611 6.19974 78.75 8.4375 78.75H32.5635V51.9768H21.4893V39.375H32.5635V29.7703C32.5635 18.8455 39.0674 12.8109 49.0289 12.8109C53.7996 12.8109 58.7883 13.6617 58.7883 13.6617V24.3844H53.2916C47.8758 24.3844 46.1865 27.7453 46.1865 31.1924V39.375H58.2768L56.3432 51.9768H46.1865V78.75H70.3125C72.5503 78.75 74.6964 77.8611 76.2787 76.2787C77.8611 74.6964 78.75 72.5503 78.75 70.3125V8.4375C78.75 6.19974 77.8611 4.05362 76.2787 2.47129C74.6964 0.888949 72.5503 0 70.3125 0Z" fill="#CCBEAE"/>
</svg>
