<svg width="79" height="79" viewBox="0 0 79 79" fill="none" xmlns="http://www.w3.org/2000/svg">
<path d="M39.4058 19.1909C28.2261 19.1909 19.2085 28.2085 19.2085 39.3882C19.2085 50.5679 28.2261 59.5854 39.4058 59.5854C50.5854 59.5854 59.603 50.5679 59.603 39.3882C59.603 28.2085 50.5854 19.1909 39.4058 19.1909ZM39.4058 52.519C32.1812 52.519 26.2749 46.6304 26.2749 39.3882C26.2749 32.146 32.1636 26.2573 39.4058 26.2573C46.6479 26.2573 52.5366 32.146 52.5366 39.3882C52.5366 46.6304 46.6304 52.519 39.4058 52.519ZM65.1401 18.3647C65.1401 20.9839 63.0308 23.0757 60.4292 23.0757C57.8101 23.0757 55.7183 20.9663 55.7183 18.3647C55.7183 15.7632 57.8276 13.6538 60.4292 13.6538C63.0308 13.6538 65.1401 15.7632 65.1401 18.3647ZM78.5171 23.146C78.2183 16.8354 76.7769 11.2456 72.1538 6.64014C67.5483 2.03467 61.9585 0.593262 55.648 0.276855C49.144 -0.0922852 29.6499 -0.0922852 23.146 0.276855C16.853 0.575684 11.2632 2.01709 6.64014 6.62256C2.01709 11.228 0.593262 16.8179 0.276855 23.1284C-0.0922852 29.6323 -0.0922852 49.1265 0.276855 55.6304C0.575684 61.9409 2.01709 67.5308 6.64014 72.1362C11.2632 76.7417 16.8354 78.1831 23.146 78.4995C29.6499 78.8686 49.144 78.8686 55.648 78.4995C61.9585 78.2007 67.5483 76.7593 72.1538 72.1362C76.7593 67.5308 78.2007 61.9409 78.5171 55.6304C78.8862 49.1265 78.8862 29.6499 78.5171 23.146ZM70.1147 62.6089C68.7437 66.0542 66.0894 68.7085 62.6265 70.0972C57.4409 72.1538 45.1362 71.6792 39.4058 71.6792C33.6753 71.6792 21.353 72.1362 16.1851 70.0972C12.7397 68.7261 10.0854 66.0718 8.69678 62.6089C6.64014 57.4233 7.11475 45.1187 7.11475 39.3882C7.11475 33.6577 6.65772 21.3354 8.69678 16.1675C10.0679 12.7222 12.7222 10.0679 16.1851 8.6792C21.3706 6.62256 33.6753 7.09717 39.4058 7.09717C45.1362 7.09717 57.4585 6.64014 62.6265 8.6792C66.0718 10.0503 68.7261 12.7046 70.1147 16.1675C72.1714 21.353 71.6968 33.6577 71.6968 39.3882C71.6968 45.1187 72.1714 57.4409 70.1147 62.6089Z" fill="#CCBEAE"/>
</svg>
