<svg width="45" height="34" viewBox="0 0 45 34" fill="none" xmlns="http://www.w3.org/2000/svg">
<path d="M44.1475 11.1445C44.4902 10.8721 45 11.127 45 11.5576V29.5312C45 31.8604 43.1104 33.75 40.7812 33.75H4.21875C1.88965 33.75 0 31.8604 0 29.5312V11.5664C0 11.127 0.500977 10.8809 0.852539 11.1533C2.82129 12.6826 5.43164 14.625 14.3965 21.1377C16.251 22.4912 19.3799 25.3389 22.5 25.3213C25.6377 25.3477 28.8281 22.4385 30.6123 21.1377C39.5771 14.625 42.1787 12.6738 44.1475 11.1445ZM22.5 22.5C24.5391 22.5352 27.4746 19.9336 28.9512 18.8613C40.6143 10.3975 41.502 9.65918 44.1914 7.5498C44.7012 7.1543 45 6.53906 45 5.88867V4.21875C45 1.88965 43.1104 0 40.7812 0H4.21875C1.88965 0 0 1.88965 0 4.21875V5.88867C0 6.53906 0.298828 7.14551 0.808594 7.5498C3.49805 9.65039 4.38574 10.3975 16.0488 18.8613C17.5254 19.9336 20.4609 22.5352 22.5 22.5Z" fill="#CCBEAE"/>
</svg>
