<svg width="40" height="40" viewBox="0 0 40 40" fill="none" xmlns="http://www.w3.org/2000/svg">
<path d="M35.1562 0H4.21875C3.09987 0 2.02681 0.444474 1.23564 1.23564C0.444474 2.02681 0 3.09987 0 4.21875L0 35.1562C0 36.2751 0.444474 37.3482 1.23564 38.1394C2.02681 38.9305 3.09987 39.375 4.21875 39.375H35.1562C36.2751 39.375 37.3482 38.9305 38.1394 38.1394C38.9305 37.3482 39.375 36.2751 39.375 35.1562V4.21875C39.375 3.09987 38.9305 2.02681 38.1394 1.23564C37.3482 0.444474 36.2751 0 35.1562 0ZM33.7157 27.0149L32.3974 32.7278C32.3304 33.0183 32.167 33.2775 31.9338 33.4631C31.7006 33.6487 31.4113 33.7499 31.1133 33.75C17.0508 33.75 5.625 22.3497 5.625 8.26172C5.63546 7.96645 5.74042 7.68234 5.92442 7.45119C6.10843 7.22003 6.36177 7.05404 6.64717 6.97764L12.3601 5.65928C12.4575 5.63867 12.5567 5.62719 12.6562 5.625C12.9112 5.63787 13.158 5.71875 13.3712 5.85923C13.5843 5.99972 13.7559 6.1947 13.8683 6.42393L16.505 12.5763C16.5696 12.7422 16.6055 12.9178 16.6113 13.0957C16.5899 13.486 16.4163 13.8523 16.1279 14.1161L12.7978 16.8407C14.8156 21.1174 18.2576 24.5594 22.5343 26.5772L25.2589 23.2471C25.5227 22.9587 25.889 22.7851 26.2793 22.7637C26.4572 22.7694 26.6329 22.8054 26.7987 22.87L32.9511 25.5067C33.1804 25.6189 33.3755 25.7905 33.516 26.0037C33.6565 26.2168 33.7373 26.4638 33.75 26.7188C33.7482 26.8184 33.7368 26.9176 33.7157 27.0149Z" fill="#CCBEAE"/>
</svg>
