<svg width="79" height="79" viewBox="0 0 79 79" fill="none" xmlns="http://www.w3.org/2000/svg">
<path d="M70.3125 0H8.4375C3.7793 0 0 3.7793 0 8.4375V70.3125C0 74.9707 3.7793 78.75 8.4375 78.75H70.3125C74.9707 78.75 78.75 74.9707 78.75 70.3125V8.4375C78.75 3.7793 74.9707 0 70.3125 0ZM61.7168 27.9141C61.752 28.4063 61.752 28.916 61.752 29.4082C61.752 44.6484 50.1504 62.209 28.9512 62.209C22.4121 62.209 16.3477 60.3105 11.25 57.041C12.1816 57.1465 13.0781 57.1816 14.0273 57.1816C19.4238 57.1816 24.3809 55.3535 28.3359 52.2598C23.2734 52.1543 19.0195 48.832 17.5605 44.2617C19.3359 44.5254 20.9355 44.5254 22.7637 44.0508C17.4902 42.9785 13.5352 38.3379 13.5352 32.7305V32.5898C15.0645 33.4512 16.8574 33.9785 18.7383 34.0488C17.157 32.997 15.8607 31.5701 14.9651 29.8954C14.0695 28.2207 13.6024 26.3503 13.6055 24.4512C13.6055 22.3066 14.168 20.3379 15.1699 18.6328C20.8477 25.6289 29.373 30.1992 38.9355 30.6914C37.3008 22.8691 43.1543 16.5234 50.1855 16.5234C53.5078 16.5234 56.4961 17.9121 58.6055 20.1621C61.207 19.6699 63.7031 18.7031 65.918 17.3848C65.0566 20.0566 63.2461 22.3066 60.8555 23.7305C63.1758 23.4844 65.4258 22.834 67.5 21.9375C65.9355 24.2402 63.9668 26.2793 61.7168 27.9141Z" fill="#CCBEAE" fill-opacity="0.917647"/>
</svg>
