<svg width="85" height="61" viewBox="0 0 85 61" fill="none" xmlns="http://www.w3.org/2000/svg">
<g filter="url(#filter0_dd_41_411)">
<path d="M72.3575 15.3125H64.1722L61.8972 9.625C59.5593 3.77754 53.9798 0 47.6811 0H30.3179C24.0206 0 18.4397 3.77754 16.1005 9.625L13.8255 15.3125H5.6415C4.57372 15.3125 3.79032 16.316 4.05009 17.351L4.8704 20.6322C5.05224 21.3623 5.70849 21.875 6.46181 21.875H9.20575C7.36962 23.4787 6.187 25.8098 6.187 28.4375V35C6.187 37.2039 7.02919 39.1932 8.3745 40.7326V48.125C8.3745 50.5408 10.3337 52.5 12.7495 52.5H17.1245C19.5403 52.5 21.4995 50.5408 21.4995 48.125V43.75H56.4995V48.125C56.4995 50.5408 58.4587 52.5 60.8745 52.5H65.2495C67.6653 52.5 69.6245 50.5408 69.6245 48.125V40.7326C70.9698 39.1945 71.812 37.2053 71.812 35V28.4375C71.812 25.8098 70.6294 23.4787 68.7946 21.875H71.5386C72.2919 21.875 72.9481 21.3623 73.13 20.6322L73.9503 17.351C74.2087 16.316 73.4253 15.3125 72.3575 15.3125ZM24.2243 12.8748C25.221 10.3838 27.6341 8.75 30.3179 8.75H47.6811C50.3649 8.75 52.778 10.3838 53.7747 12.8748L56.4995 19.6875H21.4995L24.2243 12.8748ZM17.1245 34.9727C14.4995 34.9727 12.7495 33.2281 12.7495 30.6113C12.7495 27.9945 14.4995 26.25 17.1245 26.25C19.7495 26.25 23.687 30.1752 23.687 32.792C23.687 35.4088 19.7495 34.9727 17.1245 34.9727ZM60.8745 34.9727C58.2495 34.9727 54.312 35.4088 54.312 32.792C54.312 30.1752 58.2495 26.25 60.8745 26.25C63.4995 26.25 65.2495 27.9945 65.2495 30.6113C65.2495 33.2281 63.4995 34.9727 60.8745 34.9727Z" fill="#D9D9D9"/>
</g>
<defs>
<filter id="filter0_dd_41_411" x="0" y="0" width="84.9999" height="60.5" filterUnits="userSpaceOnUse" color-interpolation-filters="sRGB">
<feFlood flood-opacity="0" result="BackgroundImageFix"/>
<feColorMatrix in="SourceAlpha" type="matrix" values="0 0 0 0 0 0 0 0 0 0 0 0 0 0 0 0 0 0 127 0" result="hardAlpha"/>
<feOffset dx="7" dy="4"/>
<feGaussianBlur stdDeviation="2"/>
<feComposite in2="hardAlpha" operator="out"/>
<feColorMatrix type="matrix" values="0 0 0 0 0 0 0 0 0 0 0 0 0 0 0 0 0 0 0.25 0"/>
<feBlend mode="normal" in2="BackgroundImageFix" result="effect1_dropShadow_41_411"/>
<feColorMatrix in="SourceAlpha" type="matrix" values="0 0 0 0 0 0 0 0 0 0 0 0 0 0 0 0 0 0 127 0" result="hardAlpha"/>
<feOffset dy="4"/>
<feGaussianBlur stdDeviation="2"/>
<feComposite in2="hardAlpha" operator="out"/>
<feColorMatrix type="matrix" values="0 0 0 0 0 0 0 0 0 0 0 0 0 0 0 0 0 0 0.25 0"/>
<feBlend mode="normal" in2="effect1_dropShadow_41_411" result="effect2_dropShadow_41_411"/>
<feBlend mode="normal" in="SourceGraphic" in2="effect2_dropShadow_41_411" result="shape"/>
</filter>
</defs>
</svg>
